<svg xmlns="http://www.w3.org/2000/svg" viewBox="0 0 108 108"><defs><style>.cls-1{fill:#fff;}</style></defs><g id="Calque_3" data-name="Calque 3"><path class="cls-1" d="M54,34.5H32.9a1.4,1.4,0,0,0-1.4,1.4V57A22.5,22.5,0,0,0,54,79.5V70.73s0,0,0,0H53a10.22,10.22,0,0,1-10.1-8.61,1.39,1.39,0,0,1,1.38-1.61H54s0,0,0,0ZM47.59,50.25H39.14a1.4,1.4,0,0,1-1.4-1.4h0a5.72,5.72,0,0,1,5.54-5.76A5.63,5.63,0,0,1,49,48.72v.13A1.4,1.4,0,0,1,47.59,50.25Z"/><path class="cls-1" d="M64.64,43.09h0a5.62,5.62,0,0,1,5.62,5.62v0a1.5,1.5,0,0,1-1.5,1.5H60.52a1.5,1.5,0,0,1-1.5-1.5v0a5.62,5.62,0,0,1,5.62-5.62Z" transform="translate(129.27 93.34) rotate(180)"/><path class="cls-1" d="M63.74,70.7H54a0,0,0,0,1,0,0V60.5a0,0,0,0,1,0,0h1a10.22,10.22,0,0,1,10.1,8.62A1.38,1.38,0,0,1,63.74,70.7Z"/></g></svg>