<svg xmlns="http://www.w3.org/2000/svg" viewBox="0 0 108 108"><defs><style>.cls-1{fill:#004071;}.cls-2{fill:none;}.cls-3{fill:#fff2a1;}</style></defs><g id="Calque_3" data-name="Calque 3"><path class="cls-1" d="M54,1H4.29A3.29,3.29,0,0,0,1,4.29V54a53,53,0,0,0,53,53V86.34a.06.06,0,0,0-.06-.06H51.59A24.1,24.1,0,0,1,27.8,66a3.29,3.29,0,0,1,3.25-3.79H53.94a.06.06,0,0,0,.06-.06ZM38.9,38.1H19a3.29,3.29,0,0,1-3.29-3.29h0a13.45,13.45,0,0,1,13-13.57A13.23,13.23,0,0,1,42.2,34.49v.32A3.29,3.29,0,0,1,38.9,38.1Z"/><path class="cls-2" d="M53.94,1H1.06A.06.06,0,0,0,1,1.06V106.94a.06.06,0,0,0,.06.06H53.94a.06.06,0,0,0,.06-.06V86.34a.06.06,0,0,0-.06-.06H51.59a24.09,24.09,0,0,1-24.09-24,.06.06,0,0,1,.06-.06H53.94a.06.06,0,0,0,.06-.06V1.06A.06.06,0,0,0,53.94,1ZM42.14,38.1H15.75A.06.06,0,0,1,15.7,38V34.81a13.45,13.45,0,0,1,13-13.57A13.23,13.23,0,0,1,42.2,34.49V38A.06.06,0,0,1,42.14,38.1Z"/><path class="cls-3" d="M79.05,21.24h0A13.25,13.25,0,0,1,92.3,34.49v.07a3.54,3.54,0,0,1-3.54,3.54H69.35a3.54,3.54,0,0,1-3.54-3.54v-.07A13.25,13.25,0,0,1,79.05,21.24Z" transform="translate(158.11 59.34) rotate(-180)"/><rect class="cls-2" x="54" y="1" width="53" height="106" rx="0.06"/><path class="cls-3" d="M77,86.28H54.06a.06.06,0,0,1-.06-.06v-24a.06.06,0,0,1,.06-.06h2.35A24.1,24.1,0,0,1,80.2,82.49,3.29,3.29,0,0,1,77,86.28Z"/></g></svg>